<svg width="549" height="562" viewBox="0 0 549 562" fill="none" xmlns="http://www.w3.org/2000/svg">
<rect x="0.500488" y="154.5" width="386" height="203" rx="38.5" fill="black" stroke="black"/>
<rect x="0.500488" y="379.5" width="548" height="182" rx="38.5" fill="black" stroke="black"/>
<rect x="397.5" y="53.5" width="151" height="304" rx="38.5" fill="black" stroke="black"/>
<path d="M46.4805 107.116C46.3258 105.956 46.3258 104.719 46.4805 103.404C50.1925 103.017 52.8605 102.669 54.4845 102.36C56.1085 101.973 57.1138 101.2 57.5005 100.04C57.8872 98.88 58.0805 96.908 58.0805 94.124V40.184C58.0805 36.936 57.8872 34.616 57.5005 33.224C57.1138 31.832 56.1085 30.9427 54.4845 30.556C52.9378 30.092 50.3858 29.7053 46.8285 29.396C46.6738 28.236 46.6738 26.9987 46.8285 25.684C48.6845 25.684 50.2312 25.7227 51.4685 25.8C52.7832 25.8 54.1365 25.8 55.5285 25.8C56.9205 25.8 58.6605 25.8387 60.7485 25.916C62.9138 25.916 65.7752 25.916 69.3325 25.916C73.7405 25.916 78.2258 25.916 82.7885 25.916C87.3512 25.8387 91.5658 25.8 95.4325 25.8C99.3765 25.8 102.547 25.8 104.944 25.8C107.419 25.7227 108.734 25.684 108.888 25.684C109.275 28.6227 109.7 31.6773 110.164 34.848C110.628 38.0187 111.131 41.3827 111.672 44.94C111.054 45.0173 110.396 45.056 109.7 45.056C109.082 45.056 108.463 45.0173 107.844 44.94C105.834 39.7587 103.475 36.124 100.768 34.036C97.9845 31.7933 93.6152 30.672 87.6605 30.672H70.8405V63.5H78.4965C82.2085 63.5 85.0312 63.268 86.9645 62.804C88.8978 62.2627 90.3285 61.1413 91.2565 59.44C92.1845 57.6613 92.9192 54.8773 93.4605 51.088C94.8525 50.856 96.1672 50.856 97.4045 51.088C97.3272 54.336 97.2498 56.9267 97.1725 58.86C97.1725 60.716 97.1725 62.1853 97.1725 63.268C97.1725 64.3507 97.1725 65.356 97.1725 66.284C97.1725 67.1347 97.1725 68.1013 97.1725 69.184C97.1725 70.2667 97.1725 71.7747 97.1725 73.708C97.2498 75.6413 97.3272 78.2707 97.4045 81.596C96.2445 81.828 94.9298 81.828 93.4605 81.596C92.9965 77.4973 92.3005 74.5587 91.3725 72.78C90.4445 70.924 89.0525 69.764 87.1965 69.3C85.4178 68.836 82.8658 68.604 79.5405 68.604H70.8405V92.616C70.8405 95.0133 70.9178 96.8693 71.0725 98.184C71.2272 99.4987 71.6912 100.543 72.4645 101.316C73.2378 102.012 74.3978 102.476 75.9445 102.708C77.5685 102.94 79.8885 103.172 82.9045 103.404C83.1365 104.641 83.1365 105.879 82.9045 107.116C81.2805 107.116 79.3085 107.077 76.9885 107C74.6685 107 72.3485 107 70.0285 107C67.7858 106.923 65.8912 106.884 64.3445 106.884C62.8752 106.884 61.0578 106.923 58.8925 107C56.7272 107 54.5232 107 52.2805 107C50.1152 107.077 48.1818 107.116 46.4805 107.116ZM139.714 108.392C134.068 108.392 129.119 107.193 124.866 104.796C120.69 102.321 117.442 98.9573 115.122 94.704C112.802 90.3733 111.642 85.424 111.642 79.856C111.642 73.824 112.84 68.5653 115.238 64.08C117.712 59.5947 121.154 56.1147 125.562 53.64C129.97 51.1653 135.035 49.928 140.758 49.928C146.403 49.928 151.314 51.1653 155.49 53.64C159.666 56.1147 162.914 59.5173 165.234 63.848C167.554 68.1787 168.714 73.0893 168.714 78.58C168.714 84.2253 167.476 89.3293 165.002 93.892C162.604 98.3773 159.24 101.935 154.91 104.564C150.579 107.116 145.514 108.392 139.714 108.392ZM124.75 78.464C124.75 86.352 126.026 92.616 128.578 97.256C131.207 101.819 135.112 104.1 140.294 104.1C145.243 104.1 149.032 101.935 151.662 97.604C154.291 93.196 155.606 87.3187 155.606 79.972C155.606 72.1613 154.291 65.936 151.662 61.296C149.032 56.656 145.204 54.336 140.178 54.336C135.228 54.336 131.4 56.4627 128.694 60.716C126.064 64.9693 124.75 70.8853 124.75 78.464ZM198.791 108.392C194.151 108.392 190.478 107.309 187.771 105.144C185.065 102.901 183.711 99.692 183.711 95.516C183.711 88.7107 183.75 82.1373 183.827 75.796C183.982 69.4547 184.098 63.3453 184.175 57.468H175.359C175.127 56.308 175.127 55.264 175.359 54.336C183.015 51.088 188.777 45.7907 192.643 38.444C193.262 38.444 193.881 38.4827 194.499 38.56C195.118 38.56 195.659 38.5987 196.123 38.676C196.046 40.6867 195.969 42.8133 195.891 45.056C195.891 47.2987 195.853 49.6573 195.775 52.132H213.407C213.639 53.8333 213.639 55.612 213.407 57.468H195.775C195.621 62.8813 195.505 68.604 195.427 74.636C195.427 80.5907 195.427 86.584 195.427 92.616C195.427 98.88 198.675 102.012 205.171 102.012C207.955 102.012 210.546 101.277 212.943 99.808C213.639 100.736 214.065 101.896 214.219 103.288C209.657 106.691 204.514 108.392 198.791 108.392ZM246.878 108.392C241.232 108.392 236.283 107.193 232.03 104.796C227.854 102.321 224.606 98.9573 222.286 94.704C219.966 90.3733 218.806 85.424 218.806 79.856C218.806 73.824 220.004 68.5653 222.402 64.08C224.876 59.5947 228.318 56.1147 232.726 53.64C237.134 51.1653 242.199 49.928 247.922 49.928C253.567 49.928 258.478 51.1653 262.654 53.64C266.83 56.1147 270.078 59.5173 272.398 63.848C274.718 68.1787 275.878 73.0893 275.878 78.58C275.878 84.2253 274.64 89.3293 272.166 93.892C269.768 98.3773 266.404 101.935 262.074 104.564C257.743 107.116 252.678 108.392 246.878 108.392ZM231.914 78.464C231.914 86.352 233.19 92.616 235.742 97.256C238.371 101.819 242.276 104.1 247.458 104.1C252.407 104.1 256.196 101.935 258.826 97.604C261.455 93.196 262.77 87.3187 262.77 79.972C262.77 72.1613 261.455 65.936 258.826 61.296C256.196 56.656 252.368 54.336 247.342 54.336C242.392 54.336 238.564 56.4627 235.858 60.716C233.228 64.9693 231.914 70.8853 231.914 78.464ZM289.019 88.672C290.179 93.776 292.035 97.6813 294.587 100.388C297.139 103.017 300.426 104.332 304.447 104.332C307.463 104.332 310.015 103.636 312.103 102.244C314.191 100.775 315.235 98.4933 315.235 95.4C315.235 93.08 314.655 91.224 313.495 89.832C312.413 88.44 310.866 87.28 308.855 86.352C306.922 85.3467 304.718 84.3413 302.243 83.336C299.382 82.176 296.675 80.9387 294.123 79.624C291.649 78.232 289.599 76.5307 287.975 74.52C286.429 72.432 285.655 69.764 285.655 66.516C285.655 62.804 286.622 59.7493 288.555 57.352C290.566 54.8773 293.118 53.0213 296.211 51.784C299.382 50.5467 302.746 49.928 306.303 49.928C308.082 49.928 309.861 50.044 311.639 50.276C313.418 50.508 314.385 50.624 314.539 50.624C316.086 50.856 317.517 51.0107 318.831 51.088C320.146 51.088 320.842 51.088 320.919 51.088C320.997 51.088 321.151 51.088 321.383 51.088C321.693 51.088 322.079 51.0493 322.543 50.972C322.543 53.4467 322.582 55.96 322.659 58.512C322.737 61.064 322.891 63.7707 323.123 66.632C323.046 66.632 322.891 66.632 322.659 66.632C321.963 66.7093 321.306 66.7867 320.687 66.864C320.146 66.864 319.605 66.8253 319.063 66.748C318.058 62.4173 316.55 59.2853 314.539 57.352C312.606 55.3413 309.861 54.336 306.303 54.336C303.133 54.336 300.581 55.032 298.647 56.424C296.791 57.816 295.863 59.7493 295.863 62.224C295.863 64.2347 296.482 65.8973 297.719 67.212C298.957 68.4493 300.465 69.4933 302.243 70.344C304.022 71.1947 305.723 71.9293 307.347 72.548C310.363 73.708 313.225 75.0227 315.931 76.492C318.715 77.884 320.958 79.7013 322.659 81.944C324.438 84.1867 325.327 87.2027 325.327 90.992C325.327 95.0133 324.283 98.3387 322.195 100.968C320.185 103.52 317.594 105.415 314.423 106.652C311.253 107.812 307.927 108.392 304.447 108.392C302.437 108.392 300.426 108.237 298.415 107.928C296.482 107.619 295.438 107.464 295.283 107.464C295.129 107.464 294.471 107.387 293.311 107.232C292.229 107.077 290.991 106.923 289.599 106.768C288.285 106.613 287.125 106.536 286.119 106.536C286.119 104.139 286.003 101.471 285.771 98.532C285.617 95.5933 285.423 92.3453 285.191 88.788C285.346 88.788 285.539 88.788 285.771 88.788C286.467 88.7107 287.047 88.672 287.511 88.672C288.053 88.5947 288.555 88.5947 289.019 88.672Z" fill="black"/>
</svg>
